# xmcd
#
# Track frame offsets: 
#        150
#        12542
#        25806
#        36082
#        48241
#        62495
#        75356
#        91396
#        106675
#        119705
#        129980
#        146758
#        160614
#        176152
#        185451
#        208769
#        220168
#        231685
#        250585
#        264881
#        280383
#        295109
#        308662
#        322911
#
# Disc length: 4522 seconds
#
# Revision: 0
# Processed by: cddbd v1.5.2PL0 Copyright (c) Steve Scherf et al.
# Submitted via: ExactAudioCopy v1.0b6
#
DISCID=4f11a818
DTITLE=Various Artist - Buried Country 1.5
DYEAR=2015
DGENRE=
TTITLE0=Vic Simms - Get Back Into The Shadows
TTITLE1=Jimmy Little - Shadow Of The Boomerang
TTITLE2=Black Allan Barker - Run Dingo Run
TTITLE3=Lionel Rose - Jackson's Track
TTITLE4=Vic Simms - Hey Sherriff
TTITLE5=Warumpi Band - Jailanguru Pakarnu
TTITLE6=Mop And The Drop Outs - Brisbane Blacks
TTITLE7=Kankawa Nagarra (Olive Knight) - Nyantu Yangka Parla Jarranyan
TTITLE7=gany Ngarpuwu
TTITLE8=Ali Mills - Waltjim Bat Matilda
TTITLE9=Maisie Kelly - My Home In The Valley
TTITLE10=Kev Carmody - You Beautiful
TTITLE11=The Country Outcasts - Blue Gums Calling Me Back Home
TTITLE12=Gus Williams - Old Aboriginal Stockman
TTITLE13=Isaac Yamma - Pitjantjatjara Boy
TTITLE14=Auriel Andrew - Ghost Gums
TTITLE15=Roger Knox And Euraba - Koorie Rose
TTITLE16=Tracey Lee Gray - Streets Of Tamworth
TTITLE17=Mac Silva - Malabar Mansion
TTITLE18=Ruby Hunter - Women's Business
TTITLE19=Tiddas - In My Kitchen
TTITLE20=Troy Cassar-Daley - Proud Young Man
TTITLE21=Rug Cutters - Land Where The Crow Flies Backwards
TTITLE22=Roger Knox And The Pine Valley Cosmonauts - Wayward Dreams
TTITLE23=Lionel Rose - I Thank You
EXTD=
EXTT0=
EXTT1=
EXTT2=
EXTT3=
EXTT4=
EXTT5=
EXTT6=
EXTT7=
EXTT8=
EXTT9=
EXTT10=
EXTT11=
EXTT12=
EXTT13=
EXTT14=
EXTT15=
EXTT16=
EXTT17=
EXTT18=
EXTT19=
EXTT20=
EXTT21=
EXTT22=
EXTT23=
PLAYORDER=
